<svg xmlns="http://www.w3.org/2000/svg" version="1.1" xmlns:xlink="http://www.w3.org/1999/xlink" xmlns:svgjs="http://svgjs.dev/svgjs" width="1000" height="1000" viewBox="0 0 1000 1000"><rect width="1000" height="1000" fill="#000000"></rect><g transform="matrix(0.7,0,0,0.7,149.57575757575756,435.2018954326917)"><svg viewBox="0 0 396 73" data-background-color="#ffffff" preserveAspectRatio="xMidYMid meet" height="184" width="1000" xmlns="http://www.w3.org/2000/svg" xmlns:xlink="http://www.w3.org/1999/xlink"><g id="tight-bounds" transform="matrix(1,0,0,1,0.2400000000000091,0.22563379979433762)"><svg viewBox="0 0 395.52 72.54873240041134" height="72.54873240041134" width="395.52"><g><svg viewBox="0 0 558.9140735423751 102.51948714666668" height="72.54873240041134" width="395.52"><g transform="matrix(1,0,0,1,0,14.168756906666673)"><svg viewBox="0 0 395.52 74.18197333333333" height="74.18197333333333" width="395.52"><g id="textblocktransform"><svg viewBox="0 0 395.52 74.18197333333333" height="74.18197333333333" width="395.52" id="textblock"><g><svg viewBox="0 0 395.52 74.18197333333333" height="74.18197333333333" width="395.52"><g transform="matrix(1,0,0,1,0,0)"><svg width="395.52" viewBox="4.2 -30.66 164.78 30.9" height="74.18197333333333" data-palette-color="#438bc5"><path d="M5.52 0Q4.83 0 4.52-0.32 4.2-0.63 4.2-1.29L4.2-1.29 4.2-29.08Q4.2-29.76 4.52-30.07 4.83-30.37 5.52-30.37L5.52-30.37 20.65-30.37Q21.12-30.37 21.33-30.08 21.53-29.79 21.53-29.08L21.53-29.08 21.53-28.37Q21.53-27.71 21.33-27.39 21.12-27.08 20.65-27.08L20.65-27.08 8.03-27.08 8.03-17.19 19.36-17.19Q19.82-17.19 20.03-16.87 20.24-16.55 20.24-15.87L20.24-15.87 20.24-15.21Q20.24-14.53 20.03-14.22 19.82-13.92 19.36-13.92L19.36-13.92 8.03-13.92 8.03-3.3 20.7-3.3Q21.17-3.3 21.37-2.99 21.58-2.69 21.58-2L21.58-2 21.58-1.29Q21.58-0.63 21.37-0.32 21.17 0 20.7 0L20.7 0 5.52 0ZM40.16 0.24Q33.03 0.24 29.61-3.52 26.19-7.28 26.19-15.21L26.19-15.21Q26.19-30.66 40.23-30.66L40.23-30.66Q42.28-30.66 44.21-30.24 46.14-29.81 47.34-29.17 48.53-28.54 48.53-27.95L48.53-27.95Q48.53-27.59 48.28-26.98 48.02-26.37 47.68-25.9 47.34-25.44 47.07-25.44L47.07-25.44Q46.95-25.44 46.38-25.76L46.38-25.76Q45.11-26.44 43.72-26.9 42.33-27.37 40.33-27.37L40.33-27.37Q35.08-27.37 32.6-24.45 30.12-21.53 30.12-15.16L30.12-15.16Q30.12-8.94 32.58-5.99 35.03-3.05 40.16-3.05L40.16-3.05Q42.31-3.05 43.85-3.56 45.38-4.08 46.8-4.83L46.8-4.83Q47.48-5.2 47.63-5.2L47.63-5.2Q47.9-5.2 48.25-4.74 48.61-4.27 48.87-3.7 49.14-3.13 49.14-2.88L49.14-2.88Q49.14-2.27 47.91-1.53 46.68-0.78 44.61-0.27 42.55 0.24 40.16 0.24L40.16 0.24ZM66.43 0.24Q59.91 0.24 56.49-3.71 53.07-7.67 53.07-15.28L53.07-15.28Q53.07-22.88 56.48-26.77 59.88-30.66 66.43-30.66L66.43-30.66Q72.99-30.66 76.41-26.77 79.83-22.88 79.83-15.28L79.83-15.28Q79.83-7.67 76.41-3.71 72.99 0.24 66.43 0.24L66.43 0.24ZM66.43-3.05Q71.02-3.05 73.46-6.19 75.9-9.33 75.9-15.28L75.9-15.28Q75.9-21.24 73.47-24.3 71.04-27.37 66.43-27.37L66.43-27.37Q61.84-27.37 59.42-24.3 57-21.24 57-15.28L57-15.28Q57-9.3 59.42-6.18 61.84-3.05 66.43-3.05L66.43-3.05ZM87.98 0.07Q87.05 0.07 86.64-0.16 86.22-0.39 86.22-0.88L86.22-0.88 86.22-29.52Q86.22-30.49 87.98-30.49L87.98-30.49 89.52-30.49Q90.96-30.49 91.35-29.69L91.35-29.69 99.55-15.45 100.68-12.72 101.8-15.21 110.03-29.69Q110.44-30.49 111.83-30.49L111.83-30.49 113.27-30.49Q115.01-30.49 115.01-29.52L115.01-29.52 115.01-0.88Q115.01 0.07 113.27 0.07L113.27 0.07 112.98 0.07Q112.05 0.07 111.64-0.16 111.22-0.39 111.22-0.88L111.22-0.88 111.22-24.24 111.15-24.05 102.51-9.03Q102.34-8.74 102.12-8.61 101.9-8.47 101.56-8.47L101.56-8.47 99.82-8.47Q99.16-8.47 98.85-9.03L98.85-9.03 90.01-24.49 90.01-0.88Q90.01 0.07 88.27 0.07L88.27 0.07 87.98 0.07ZM121.28 0.07Q120.3 0.07 119.86-0.11 119.42-0.29 119.42-0.66L119.42-0.66Q119.42-0.83 119.55-1.25L119.55-1.25 129.82-29.79Q130.07-30.49 131.56-30.49L131.56-30.49 132.83-30.49Q134.32-30.49 134.56-29.79L134.56-29.79 144.84-1.22Q144.96-0.95 144.96-0.66L144.96-0.66Q144.96 0.07 143.13 0.07L143.13 0.07 142.76 0.07Q141.25 0.07 141.01-0.61L141.01-0.61 138.47-7.74 125.72-7.74 123.23-0.61Q123.01 0.07 121.5 0.07L121.5 0.07 121.28 0.07ZM126.92-11.04L137.29-11.04 132.75-23.95Q132.56-24.49 132.44-25.17 132.31-25.85 132.22-26.49L132.22-26.49 132.12-26.49Q131.83-24.85 131.46-23.95L131.46-23.95 126.92-11.04ZM150.92 0.07Q150.01 0.07 149.61-0.16 149.21-0.39 149.21-0.88L149.21-0.88 149.21-29.08Q149.21-29.79 149.51-30.08 149.82-30.37 150.5-30.37L150.5-30.37 159.29-30.37Q163.1-30.37 166.04-28.55 168.98-26.73 168.98-21.88L168.98-21.88Q168.98-18.26 167.3-16.27 165.61-14.28 163.51-13.61 161.41-12.94 159.73-12.94L159.73-12.94 152.99-12.94 152.99-0.88Q152.99-0.39 152.58-0.16 152.16 0.07 151.28 0.07L151.28 0.07 150.92 0.07ZM152.99-16.24L159.78-16.24Q160.88-16.24 162.07-16.71 163.27-17.19 164.15-18.44 165.03-19.7 165.03-21.88L165.03-21.88Q165.03-24.78 163.31-25.93 161.58-27.08 159.17-27.08L159.17-27.08 152.99-27.08 152.99-16.24Z" opacity="1" transform="matrix(1,0,0,1,0,0)" fill="#ffffff" class="wordmark-text-0" data-fill-palette-color="primary" id="text-0"></path></svg></g></svg></g></svg></g></svg></g><g transform="matrix(1,0,0,1,413.03258353664,0)"><svg viewBox="0 0 145.88149000573515 102.51948714666668" height="102.51948714666668" width="145.88149000573515"><g><svg xmlns="http://www.w3.org/2000/svg" xmlns:xlink="http://www.w3.org/1999/xlink" version="1.1" x="0" y="0" viewBox="1 15.472 97.002 68.16900000000001" enable-background="new 0 0 100 100" xml:space="preserve" height="102.51948714666668" width="145.88149000573515" class="icon-icon-0" data-fill-palette-color="accent" id="icon-0"><g fill="#438bc5" data-fill-palette-color="accent"><g fill="#438bc5" data-fill-palette-color="accent"><polygon points="1,83.641 34.287,71.758 39.744,15.472 15.743,27.12   " fill="#ffffff" data-fill-palette-color="accent"></polygon><polygon points="63.988,27.617 68.854,83.641 98.002,71.862 83.851,16.075   " fill="#ffffff" data-fill-palette-color="accent"></polygon><polygon points="40.909,15.488 35.971,71.758 67.063,83.641 62.713,27.604   " fill="#ffffff" data-fill-palette-color="accent"></polygon></g></g></svg></g></svg></g></svg></g><defs></defs></svg><rect width="395.52" height="72.54873240041134" fill="none" stroke="none" visibility="hidden"></rect></g></svg></g></svg>