<?xml version="1.0" encoding="UTF-8" standalone="no" ?>
<!DOCTYPE svg PUBLIC "-//W3C//DTD SVG 1.1//EN" "http://www.w3.org/Graphics/SVG/1.1/DTD/svg11.dtd">
<svg xmlns="http://www.w3.org/2000/svg" xmlns:xlink="http://www.w3.org/1999/xlink" version="1.1" width="1080" height="1080" viewBox="0 0 1080 1080" xml:space="preserve">
<desc>Created with Fabric.js 5.2.4</desc>
<defs>
</defs>
<g transform="matrix(1 0 0 1 540 540)" id="b8ff6401-19c8-4738-b596-a9e7f44999f3"  >
<rect style="stroke: none; stroke-width: 1; stroke-dasharray: none; stroke-linecap: butt; stroke-dashoffset: 0; stroke-linejoin: miter; stroke-miterlimit: 4; fill: rgb(255,255,255); fill-rule: nonzero; opacity: 1; visibility: hidden;" vector-effect="non-scaling-stroke"  x="-540" y="-540" rx="0" ry="0" width="1080" height="1080" />
</g>
<g transform="matrix(1 0 0 1 540 540)" id="d9797960-fccc-48a0-9590-b43e58b7e9b4"  >
</g>
<g transform="matrix(1 0 0 1 -130.97 1243.24)"  >
<g style="" vector-effect="non-scaling-stroke"   >
		<g transform="matrix(1 0 0 0.96 -51.68 -14.19)"  >
<ellipse style="stroke: none; stroke-width: 0; stroke-dasharray: none; stroke-linecap: butt; stroke-dashoffset: 0; stroke-linejoin: miter; stroke-miterlimit: 4; fill: rgb(67,139,197); fill-rule: nonzero; opacity: 1;" vector-effect="non-scaling-stroke"  cx="0" cy="0" rx="3.123437" ry="3.248809" />
</g>
		<g transform="matrix(1 0 0 1 96.12 -77.35)" id="evmKWalu3iC3"  >
<path style="stroke: rgb(67,139,197); stroke-width: 0.6; stroke-dasharray: none; stroke-linecap: square; stroke-dashoffset: 0; stroke-linejoin: bevel; stroke-miterlimit: 4; fill: rgb(67,139,197); fill-rule: nonzero; opacity: 1;" vector-effect="non-scaling-stroke"  transform=" translate(-182.25, -169.12)" d="M 160.085924 166.807232 L 204.561313 171.432231 L 159.93231500000002 171.432231 L 160.085924 166.807232 Z" stroke-linecap="round" />
</g>
		<g transform="matrix(1 0 0 1 96.12 -77.35)" id="evmKWalu3iC4"  >
<path style="stroke: rgb(67,139,197); stroke-width: 0.6; stroke-dasharray: none; stroke-linecap: square; stroke-dashoffset: 0; stroke-linejoin: bevel; stroke-miterlimit: 4; fill: rgb(67,139,197); fill-rule: nonzero; opacity: 1;" vector-effect="non-scaling-stroke"  transform=" translate(-182.25, -169.12)" d="M 160.085924 166.807232 L 204.561313 171.432231 L 159.93231500000002 171.432231 L 160.085924 166.807232 Z" stroke-linecap="round" />
</g>
		<g transform="matrix(1 0 0 1 96.12 -77.35)" id="evmKWalu3iC5"  >
<path style="stroke: rgb(67,139,197); stroke-width: 0.6; stroke-dasharray: none; stroke-linecap: square; stroke-dashoffset: 0; stroke-linejoin: bevel; stroke-miterlimit: 4; fill: rgb(67,139,197); fill-rule: nonzero; opacity: 1;" vector-effect="non-scaling-stroke"  transform=" translate(-182.25, -169.12)" d="M 160.085924 166.807232 L 204.561313 171.432231 L 159.93231500000002 171.432231 L 160.085924 166.807232 Z" stroke-linecap="round" />
</g>
		<g transform="matrix(2.06 0 0 0.99 -81.71 50.81)"  >
<ellipse style="stroke: none; stroke-width: 0; stroke-dasharray: none; stroke-linecap: butt; stroke-dashoffset: 0; stroke-linejoin: miter; stroke-miterlimit: 4; fill: rgb(67,139,197); fill-rule: nonzero; opacity: 1;" vector-effect="non-scaling-stroke"  cx="0" cy="0" rx="17.951997" ry="16.04303" />
</g>
		<g transform="matrix(1.85 0 0 0.84 -44.69 56.01)"  >
<ellipse style="stroke: rgb(255,255,255); stroke-width: 1; stroke-dasharray: none; stroke-linecap: butt; stroke-dashoffset: 0; stroke-linejoin: miter; stroke-miterlimit: 4; fill: rgb(67,139,197); fill-rule: nonzero; opacity: 1;" vector-effect="non-scaling-stroke"  cx="0" cy="0" rx="17.951997" ry="16.04303" />
</g>
		<g transform="matrix(1 0 0 1 -51.68 18.31)"  >
<rect style="stroke: none; stroke-width: 0; stroke-dasharray: none; stroke-linecap: butt; stroke-dashoffset: 0; stroke-linejoin: miter; stroke-miterlimit: 4; fill: rgb(67,139,197); fill-rule: nonzero; opacity: 1;" vector-effect="non-scaling-stroke"  x="-3.123437" y="-32.5" rx="0" ry="0" width="6.246874" height="65" />
</g>
		<g transform="matrix(1 0 0 0.96 -51.68 -14.19)"  >
<ellipse style="stroke: none; stroke-width: 0; stroke-dasharray: none; stroke-linecap: butt; stroke-dashoffset: 0; stroke-linejoin: miter; stroke-miterlimit: 4; fill: rgb(255,255,255); fill-rule: nonzero; opacity: 1;" vector-effect="non-scaling-stroke"  cx="0" cy="0" rx="1.5" ry="1.559428" />
</g>
		<g transform="matrix(2.06 0 0 0.99 -79.71 63.57)"  >
<ellipse style="stroke: rgb(255,255,255); stroke-width: 1; stroke-dasharray: none; stroke-linecap: butt; stroke-dashoffset: 0; stroke-linejoin: miter; stroke-miterlimit: 4; fill: rgb(67,139,197); fill-rule: nonzero; opacity: 1;" vector-effect="non-scaling-stroke"  cx="0" cy="0" rx="17.951997" ry="16.04303" />
</g>
</g>
</g>
</svg>