<svg id="ewjoQUhvVK71" xmlns="http://www.w3.org/2000/svg" xmlns:xlink="http://www.w3.org/1999/xlink" viewBox="0 0 300 300" shape-rendering="geometricPrecision" text-rendering="geometricPrecision"><ellipse rx="3.79022" ry="3.79022" transform="matrix(1.26813 0 0 1.284621 295.09345 214.564312)" fill="#438bc5" stroke-width="0"/><ellipse rx="3.79022" ry="3.79022" transform="matrix(1.26813 0 0 1.284621 298.748119 209.684775)" fill="#438bc5" stroke-width="0"/><ellipse rx="3.79022" ry="3.79022" transform="matrix(1.26813 0 0 1.284621 295.09345 214.564312)" fill="#438bc5" stroke-width="0"/><ellipse rx="3.79022" ry="3.79022" transform="matrix(2.572024 0 0 2.572023 267.675172 219.433308)" fill="#438bc5" stroke-width="0"/><ellipse rx="3.79022" ry="3.79022" transform="matrix(2.572024 0 0 2.572023 272.675172 208.433308)" fill="#438bc5" stroke-width="0"/><ellipse rx="3.79022" ry="3.79022" transform="matrix(2.572024 0 0 2.572023 281.213926 198.684775)" fill="#438bc5" stroke-width="0"/><ellipse rx="3.79022" ry="3.79022" transform="matrix(2.572024 0 0 2.572023 285.983308 218.181841)" fill="#438bc5" stroke-width="0"/><ellipse rx="3.79022" ry="3.79022" transform="matrix(2.572024 0 0 2.572023 287.983308 208.433308)" fill="#438bc5" stroke-width="0"/><ellipse rx="3.79022" ry="3.79022" transform="matrix(1.26813 0 0 1.284621 302.538337 206.156043)" fill="#438bc5" stroke-width="0"/><ellipse rx="3.79022" ry="3.79022" transform="matrix(1.26813 0 0 1.284621 303.554611 212.079444)" fill="#438bc5" stroke-width="0"/><ellipse rx="3.79022" ry="3.79022" transform="matrix(1.26813 0 0 1.284621 308.361103 207.978628)" fill="#438bc5" stroke-width="0"/><ellipse rx="3.79022" ry="3.79022" transform="matrix(1.26813 0 0 1.284621 308.361103 202.341452)" fill="#438bc5" stroke-width="0"/><ellipse rx="3.79022" ry="3.79022" transform="matrix(2.572024 0 0 2.572023 290.151405 193.815769)" fill="#438bc5" stroke-width="0"/><ellipse rx="3.79022" ry="3.79022" transform="matrix(1.26813 0 0 1.284621 297.731845 203.553771)" fill="#438bc5" stroke-width="0"/><ellipse rx="3.79022" ry="3.79022" transform="matrix(1.26813 0 0 1.284621 302.538337 198.684765)" fill="#438bc5" stroke-width="0"/><ellipse rx="3.79022" ry="3.79022" transform="matrix(1.26813 0 0 1.284621 297.731845 188.946773)" fill="#438bc5" stroke-width="0"/><ellipse rx="44.472529" ry="15.234534" transform="matrix(1.078757 0 0 1.011868 308.361103 282.414553)" fill="#438bc5" stroke="#fff"/><ellipse rx="44.472529" ry="15.234534" transform="matrix(1.078757 0 0 1.215819 328.37792 305.554669)" fill="#438bc5" stroke="#fff"/><ellipse rx="44.472529" ry="15.234534" transform="matrix(1.500234 0 0 1.870555 267.675172 305.554669)" fill="#438bc5" stroke="#fff"/><ellipse rx="3.79022" ry="3.79022" transform="matrix(1.26813 0 0 1.284621 302.538337 193.815769)" fill="#438bc5" stroke-width="0"/><path d="M170.617745,117.136667c0,0,0,40.9915-10,75.662861c65,0,24.551446,0,65,0-9.096991-34.671361-9.380799-49.106437-9.380799-75.665556-45.903009,0-45.619201.002695-45.619201.002695Z" transform="translate(84.305963 101.299336)" fill="#438bc5" stroke="#fff" stroke-width="0.6"/><ellipse rx="5.958319" ry="15.633213" transform="translate(277.423708 251.366003)" fill="rgba(67,139,197,0)" stroke="#fff"/><ellipse rx="5.958319" ry="15.633213" transform="matrix(-.5 0.866025-.866025-.5 277.423708 251.366003)" fill="rgba(67,139,197,0)" stroke="#fff"/><ellipse rx="5.958319" ry="15.633213" transform="matrix(-.5-.866025 0.866025-.5 277.423708 251.366003)" fill="rgba(67,139,197,0)" stroke="#fff"/><ellipse rx="3.439645" ry="3.439645" transform="matrix(.7 0 0 0.7 277.423708 251.366003)" fill="#fff" stroke="#fff"/><path d="" transform="translate(84.923708 101.366003)" fill="none" stroke="#3f5787" stroke-width="0.6"/><line x1="-23.096459" y1="0" x2="23.096458" y2="0" transform="translate(277.731475 218.181841)" fill="none" stroke="#fff"/><line x1="-31.718698" y1="0" x2="31.718697" y2="0" transform="matrix(1.050202 0 0 1 277.423709 294.098866)" fill="none" stroke="#438bc5"/></svg>
